# xmcd CD database file generated by OrangeCD 5.2
#
# Track frame offsets:
#	183
#	12683
#	35890
#	103783
#	124770
#	151158
#	210408
#	226345
#	241590
#	293863
#
# Disc length: 4336 seconds
#
# Revision: 3
# Processed by: cddbd v1.5.1PL2 Copyright (c) Steve Scherf et al.
# Submitted via: OrangeCD 5.2
#
DISCID=8310ee0a
DTITLE=Stevie Ray Vaughan - Cold Shot
DYEAR=1992
DGENRE=Blues Rock
TTITLE0=Scuttle Buttin'
TTITLE1=Say What
TTITLE2=Voodoo Child
TTITLE3=Cold Shot
TTITLE4=Couldn't Stand The Weather
TTITLE5=Tin Pan Alley (Dirty Pool)
TTITLE6=Mary Had A Little Lamb
TTITLE7=Love Struck Baby
TTITLE8=Texas Flood
TTITLE9=Lenny
EXTD=
EXTT0=
EXTT1=
EXTT2=
EXTT3=
EXTT4=
EXTT5=
EXTT6=
EXTT7=
EXTT8=
EXTT9=
PLAYORDER=
